<svg id="Layer_1" enable-background="new 0 0 512 512" height="512" viewBox="0 0 512 512" width="512" xmlns="http://www.w3.org/2000/svg"><path d="m431.8 40h-376.5c-7 0-12.7 5.7-12.7 12.6v260.4c0 6.9 5.7 12.6 12.7 12.6h376.5c6.9 0 12.6-5.7 12.6-12.6v-260.4c.1-6.9-5.6-12.6-12.6-12.6zm-183.5 256.1c-4.2-4.2-11.4-1.2-11.4 4.7s7.2 8.9 11.4 4.7c2.6-2.5 2.6-6.8 0-9.4zm-4.8-10.2c13.3 0 20 16.1 10.6 25.5s-25.5 2.7-25.5-10.6c0-8.2 6.7-14.9 14.9-14.9zm176.7-218.9h-353.3v202.5h353.3zm-357.5-8.3h361.6c2.3 0 4.1 1.8 4.1 4.1v210.8c0 2.3-1.8 4.1-4.1 4.1h-361.6c-2.3 0-4.1-1.9-4.1-4.1v-210.7c0-2.3 1.9-4.2 4.1-4.2zm361.6 355.9c16.3 24.7 62.4 24.5 79.7 0-17.3-24.6-63.4-24.8-79.7 0zm83.9 8c-21.3 24.8-67.5 24.9-87.9.3-3 9.2-2.3 19.1.7 28.8h84.5c4.6-9.8 6-19.8 2.7-29.1zm-235-324h-59.2v48.9h59.2zm-63.4-8.2h67.5c2.3 0 4.1 1.8 4.1 4.1v57.1c0 2.3-1.8 4.1-4.1 4.1h-67.5c-2.3 0-4.1-1.8-4.1-4.1v-57.1c0-2.3 1.8-4.1 4.1-4.1zm160.8 8.2h-59.2v48.9h59.2zm-63.3-8.2h67.5c2.3 0 4.1 1.8 4.1 4.1v57.1c0 2.3-1.8 4.1-4.1 4.1h-67.5c-2.3 0-4.1-1.8-4.1-4.1v-57.1c0-2.3 1.8-4.1 4.1-4.1zm-131.6 8.2h-59.2v48.9h59.2zm-63.4-8.2h67.5c2.3 0 4.1 1.8 4.1 4.1v57.1c0 2.3-1.8 4.1-4.1 4.1h-67.5c-2.3 0-4.1-1.8-4.1-4.1v-57.1c0-2.3 1.8-4.1 4.1-4.1zm12.6 113.8c-5.4 0-5.4-8.2 0-8.2h237.4c5.4 0 5.4 8.2 0 8.2zm0 26.3c-5.4 0-5.4-8.2 0-8.2h57.1c5.4 0 5.4 8.2 0 8.2zm0 18.1c-5.4 0-5.4-8.2 0-8.2h237.4c5.4 0 5.4 8.2 0 8.2zm0-62.4c-5.4 0-5.4-8.3 0-8.3h57.1c5.4 0 5.4 8.3 0 8.3zm80 188.5h77.3c-10.9-11.1-18.1-25.4-20.7-40.8h-35.8c-2.7 15.4-9.9 29.6-20.8 40.8zm148.1 22h19.6l-5.6-13.8h-18.7zm-24.6.1h15.9c-1.6-4.7-3.3-9.3-4.8-13.8h-15.2zm-24.7 0h16.1l-4.1-13.9h-15.4zm-24.8.1h16.3l-3.3-13.9h-15.5zm-24.9 0h16.5l-2.6-13.9h-15.7c.6 4.5 1.2 9.1 1.8 13.9zm-24.9 0h16.6c-.6-4.8-1.2-9.4-1.8-14h-15.9zm-25.1.1h16.8l-1-14h-16zm-25 0h16.8l-.3-14h-16zm-25.1.1h16.9l.5-14.1h-16.1zm-25.2 0h17l1.3-14.1h-16.1c-.8 4.6-1.5 9.3-2.2 14.1zm-25.3 0h17c.7-4.8 1.4-9.5 2.1-14.1h-16.2zm-25.4.1h16.9l2.9-14.2h-16.1zm-25.4 0h16.9l3.7-14.2h-16.1c-1.7 5.3-3.1 9.8-4.5 14.2zm-28.2 0h19.5c1.6-5.1 3.2-10.1 4.5-14.3h-18.6zm9.3 32.5-21.6.1-8.3 21.9 23-.1c2.8-9.1 5-16 6.9-21.9zm27.4-.1-18.7.1c-2.6 8.1-5 15.8-6.9 21.9l20-.1zm27.3-.1-18.8.1-5.6 21.8 20-.1zm27.2-.1-18.8.1-4.4 21.8 20-.1zm27 0-18.7.1-3.2 21.7 19.9-.1zm27-.1-18.7.1-2 21.6 19.9-.1c.2-7.4.5-14.6.8-21.6zm26.8-.1-18.6.1c-.3 7-.5 14.2-.8 21.6l19.8-.1c-.1-7.5-.2-14.6-.4-21.6zm26.8-.1-18.6.1c.1 7 .3 14.1.4 21.5l19.8-.1c-.5-7.1-1.1-14.4-1.6-21.5zm26.6-.1-18.3.1c.5 6.8 1 13.9 1.6 21.5l19.5-.1c-.8-6.6-1.8-14-2.8-21.5zm26.6-.1-18.3.1c.8 6.3 1.7 13.2 2.8 21.4l19.4-.1zm26.4 0-18.1.1 3.9 21.3 19.2-.1zm26.4-.1-17.9.1 5.1 21.3 19-.1c-1.8-6.2-4-13.7-6.2-21.3zm26.2-.1-17.7.1c1.8 6 3.7 12.8 6.2 21.2l18.8-.1c-2-6.1-4.6-13.5-7.3-21.2zm30.3-.1-21.5.1c2 6 4.4 12.8 7.3 21.2l22.9-.1zm-24.4-8.1 21-.1-6.3-15.4h-20.1zm-26 .1 17.2-.1-5.4-15.5h-16.4zm-26 0 17.4-.1-4.6-15.6h-16.6zm-26.1.1 17.6-.1-3.7-15.6h-16.8zm-26.1.1 17.8-.1-2.9-15.6h-17zm-26.2.1 17.9-.1-2-15.7h-17zm-26.4 0 18.1-.1-1.2-15.7h-17.2zm-26.4.1 18.1-.1-.3-15.8h-17.3zm-26.5.1 18.2-.1.6-15.8h-17.3zm-26.5.1 18.3-.1 1.4-15.8h-17.4zm-26.7.1 18.3-.1 2.3-15.9h-17.4zm-26.7 0 18.3-.1 3.2-15.9h-17.4zm-26.8.1 18.3-.1 4.2-16h-17.3zm-29.7.1 21.1-.1 5-16h-20zm-13.2 38.4v12.1h394.3v-14l-55.2.3c-.1 0-.3 0-.5 0l-27.2.1c-.2 0-.5 0-.7 0l-83.3.4c-.2 0-.4 0-.5 0l-112.7.6c-.2 0-.4 0-.6 0l-28.1.1c-9.3.2-19.5-.1-28.7.1-.1 0-.2 0-.3 0l-28.3.1c-.2 0-.4 0-.6 0z" fill="#00aeef"/></svg>