<svg id="Layer_1" enable-background="new 0 0 90 90" height="90" viewBox="0 0 90 90" width="90" xmlns="http://www.w3.org/2000/svg"><path d="m59 40h-2v-29c0-2.206-1.794-4-4-4h-31v-2h31c3.309 0 6 2.691 6 6z" fill="#183faa"/><path d="m56 50h-26c-2.757 0-5-2.243-5-5v-29h-7c-.552 0-1-.448-1-1v-5c0-2.757 2.243-5 5-5s5 2.243 5 5v35c0 1.654 1.346 3 3 3s3-1.346 3-3v-4c0-.552.448-1 1-1h27c.552 0 1 .448 1 1v3c0 3.309-2.691 6-6 6zm-22.002-2h22.002c2.206 0 4-1.794 4-4v-2h-25v3c0 1.125-.374 2.164-1.002 3zm-14.998-34h6v-4c0-1.654-1.346-3-3-3s-3 1.346-3 3z" fill="#183faa"/><g fill="#30f2ac"><path d="m33.734 16.146c-.265 0-.52-.105-.707-.293l-1.979-1.979c-.391-.391-.391-1.024 0-1.414.391-.391 1.023-.391 1.414 0l1.271 1.272 3.027-3.027c.391-.391 1.023-.391 1.414 0s.391 1.023 0 1.414l-3.734 3.734c-.187.188-.441.293-.706.293z"/><path d="m50 15h-8c-.552 0-1-.448-1-1s.448-1 1-1h8c.552 0 1 .448 1 1s-.448 1-1 1z"/><path d="m37 26h-5c-.552 0-1-.448-1-1v-5c0-.552.448-1 1-1h5c.552 0 1 .448 1 1v5c0 .552-.448 1-1 1zm-4-2h3v-3h-3z"/><path d="m50 23h-8c-.552 0-1-.448-1-1s.448-1 1-1h8c.552 0 1 .448 1 1s-.448 1-1 1z"/><path d="m37 36h-5c-.552 0-1-.448-1-1v-5c0-.552.448-1 1-1h5c.552 0 1 .448 1 1v5c0 .552-.448 1-1 1zm-4-2h3v-3h-3z"/><path d="m50 33h-8c-.552 0-1-.448-1-1s.448-1 1-1h8c.552 0 1 .448 1 1s-.448 1-1 1z"/></g><g fill="#183faa"><path d="m50 65h-10c-.552 0-1 .448-1 1s.448 1 1 1h10c.552 0 1-.448 1-1s-.448-1-1-1z"/><path d="m59 18h5v2h-5z"/><path d="m77 18h-5v2h5c2.206 0 4 1.794 4 4v35h-71v-35c0-2.206 1.794-4 4-4h11v-2h-11c-3.309 0-6 2.691-6 6v43c0 3.309 2.691 6 6 6h22.753l-4.821 7h-5.432c-1.93 0-3.5 1.57-3.5 3.5s1.57 3.5 3.5 3.5h37c1.93 0 3.5-1.57 3.5-3.5s-1.57-3.5-3.5-3.5h-4.432l-4.821-7h22.753c3.309 0 6-2.691 6-6v-43c0-3.309-2.691-6-6-6zm-12 65.5c0 .827-.673 1.5-1.5 1.5h-37c-.827 0-1.5-.673-1.5-1.5s.673-1.5 1.5-1.5h37c.827 0 1.5.673 1.5 1.5zm-8.36-3.5h-22.28l4.821-7h12.637zm20.36-9h-63c-2.206 0-4-1.794-4-4v-6h71v6c0 2.206-1.794 4-4 4z"/></g><path d="m72 4h-8c-.552 0-1 .448-1 1v25c0 .265.105.52.293.707l4 4c.195.195.451.293.707.293s.512-.098.707-.293l4-4c.188-.187.293-.442.293-.707v-25c0-.552-.448-1-1-1zm-7 22v-16h2v16zm4-16h2v16h-2zm2-4v2h-6v-2zm-3 26.586-3-3v-1.586h6v1.586z" fill="#30f2ac"/></svg>