<svg xmlns="http://www.w3.org/2000/svg" data-name="Layer 1" id="Layer_1" viewBox="0 0 64 64" width="300" height="300" version="1.1" xmlns:xlink="http://www.w3.org/1999/xlink" xmlns:svgjs="http://svgjs.dev/svgjs"><g transform="matrix(1,0,0,1,0,0)"><title/><path d="M3,62H61a1,1,0,0,0,.3-1.953L42.407,54H44a1,1,0,0,0,.242-.03l16-4A1,1,0,0,0,61,49V13a1,1,0,0,0-1.242-.97L48,14.969V8.8h2V9a1,1,0,0,0,1,1h6a1,1,0,0,0,.769-1.64L56.3,6.6l1.467-1.76A1,1,0,0,0,57,3.2H52V3a1,1,0,0,0-1-1H47a1,1,0,0,0-1,1V7.8a.958.958,0,0,0,.04.2H46v7.469l-1.693.424-11.6-11.6a1,1,0,0,0-1.414,0l-11.6,11.6L10,13.469V8.8h2V9a1,1,0,0,0,1,1h6a1,1,0,0,0,.769-1.64L18.3,6.6l1.467-1.76A1,1,0,0,0,19,3.2H14V3a1,1,0,0,0-1-1H9A1,1,0,0,0,8,3V7.8a.958.958,0,0,0,.04.2H8v4.969L4.242,12.03A1,1,0,0,0,3,13V49a1,1,0,0,0,.758.97l16,4A1,1,0,0,0,20,54h1.593L2.7,60.047A1,1,0,0,0,3,62ZM48,4h2v.2a1,1,0,0,0,1,1h3.865l-.634.76a1,1,0,0,0,0,1.28l.634.76H52V7.8a1,1,0,0,0-1-1H48Zm5,45.719-2,.5V48a1,1,0,0,1,1-1,.978.978,0,0,1,.713.306A.965.965,0,0,1,53,48ZM45,17.781l14-3.5V48.219l-4,1V48a3.015,3.015,0,0,0-3-3,3,3,0,0,0-3,3v2.719l-4,1ZM10,4h2v.2a1,1,0,0,0,1,1h3.865l-.634.76a1,1,0,0,0,0,1.28l.634.76H14V7.8a1,1,0,0,0-1-1H10Zm3,46.219-2-.5V48a1,1,0,0,1,1-1,.978.978,0,0,1,.713.306A.965.965,0,0,1,13,48Zm6,1.5-4-1V48a3.015,3.015,0,0,0-3-3,3,3,0,0,0-3,3v1.219l-4-1V14.281l14,3.5ZM24.548,60l6.466-6h1.972l6.466,6ZM29,52V47a3,3,0,0,1,6,0v5H29Zm25.594,8h-12.2l-6.422-5.959ZM21,52V17.414l11-11,11,11V52H37V47a5,5,0,0,0-10,0v5Zm7.029,2.041L21.607,60H9.406Z" fill="#4f88b7" fill-opacity="1" data-original-color="#000000ff" stroke="none" stroke-opacity="1"/><path d="M32,27a7,7,0,1,0-7-7A7.008,7.008,0,0,0,32,27Zm0-12a5,5,0,1,1-5,5A5.006,5.006,0,0,1,32,15Z" fill="#4f88b7" fill-opacity="1" data-original-color="#000000ff" stroke="none" stroke-opacity="1"/><path d="M31.629,21.129l2,.8.742-1.858L33,19.523V17H31v3.2A1,1,0,0,0,31.629,21.129Z" fill="#4f88b7" fill-opacity="1" data-original-color="#000000ff" stroke="none" stroke-opacity="1"/><path d="M29,34V30a1,1,0,0,0-1-1H24a1,1,0,0,0-1,1v4a1,1,0,0,0,1,1h4A1,1,0,0,0,29,34Zm-2-1H25V31h2Z" fill="#4f88b7" fill-opacity="1" data-original-color="#000000ff" stroke="none" stroke-opacity="1"/><path d="M35,30v4a1,1,0,0,0,1,1h4a1,1,0,0,0,1-1V30a1,1,0,0,0-1-1H36A1,1,0,0,0,35,30Zm2,1h2v2H37Z" fill="#4f88b7" fill-opacity="1" data-original-color="#000000ff" stroke="none" stroke-opacity="1"/><path d="M50,25h4a1,1,0,0,0,1-1V20a1,1,0,0,0-1-1H50a1,1,0,0,0-1,1v4A1,1,0,0,0,50,25Zm1-4h2v2H51Z" fill="#4f88b7" fill-opacity="1" data-original-color="#000000ff" stroke="none" stroke-opacity="1"/><path d="M50,33h4a1,1,0,0,0,1-1V28a1,1,0,0,0-1-1H50a1,1,0,0,0-1,1v4A1,1,0,0,0,50,33Zm1-4h2v2H51Z" fill="#4f88b7" fill-opacity="1" data-original-color="#000000ff" stroke="none" stroke-opacity="1"/><path d="M50,41h4a1,1,0,0,0,1-1V36a1,1,0,0,0-1-1H50a1,1,0,0,0-1,1v4A1,1,0,0,0,50,41Zm1-4h2v2H51Z" fill="#4f88b7" fill-opacity="1" data-original-color="#000000ff" stroke="none" stroke-opacity="1"/><path d="M10,25h4a1,1,0,0,0,1-1V20a1,1,0,0,0-1-1H10a1,1,0,0,0-1,1v4A1,1,0,0,0,10,25Zm1-4h2v2H11Z" fill="#4f88b7" fill-opacity="1" data-original-color="#000000ff" stroke="none" stroke-opacity="1"/><path d="M10,33h4a1,1,0,0,0,1-1V28a1,1,0,0,0-1-1H10a1,1,0,0,0-1,1v4A1,1,0,0,0,10,33Zm1-4h2v2H11Z" fill="#4f88b7" fill-opacity="1" data-original-color="#000000ff" stroke="none" stroke-opacity="1"/><path d="M10,41h4a1,1,0,0,0,1-1V36a1,1,0,0,0-1-1H10a1,1,0,0,0-1,1v4A1,1,0,0,0,10,41Zm1-4h2v2H11Z" fill="#4f88b7" fill-opacity="1" data-original-color="#000000ff" stroke="none" stroke-opacity="1"/></g></svg>