<svg height="48" viewBox="0 0 48 48" width="48" xmlns="http://www.w3.org/2000/svg"><g id="_45-Learning" fill="none" stroke-linejoin="round" stroke-width="2" data-name="45-Learning"><path d="m11 42h26" stroke="#2c8eeb"/><path d="m19 1h10v4h-10z" stroke="#2c8eeb"/><g stroke="#000"><path d="m41 5h6v4h-3"/><path d="m28 9h-27v-4h30"/><path d="m45 12v23a1 1 0 0 1 -1 1h-7v11h4v-11"/><path d="m3 12v23a1 1 0 0 0 1 1h7v11h-4v-11"/><path d="m16 34h16v4h-16z"/><path d="m16 36h-5"/><path d="m32 36h5"/></g><path d="m31 10 5-5 5 5" stroke="#2c8eeb"/><path d="m36 5v16a2.938 2.938 0 0 1 -3 3h-18" stroke="#2c8eeb"/><path d="m15 24a2.938 2.938 0 0 0 -3 3v5" stroke="#2c8eeb"/><path d="m7 14h10v4h-10" stroke="#000"/><path d="m22 18h-2" stroke="#2c8eeb"/><path d="m26 18h-2" stroke="#000"/><path d="m31 14h-11" stroke="#000"/></g></svg>