<svg height="512" viewBox="0 0 128 128" width="512" xmlns="http://www.w3.org/2000/svg" xmlns:xlink="http://www.w3.org/1999/xlink"><clipPath id="clip-path"><path d="m31.99656 78.55065a7.30685 7.30685 0 1 0 7.30685 7.30685 7.31546 7.31546 0 0 0 -7.30685-7.30685z"/></clipPath><clipPath id="clip-path-2"><path d="m63.99656 78.39286a7.4153 7.4153 0 1 0 7.4153 7.41529 7.424 7.424 0 0 0 -7.4153-7.41529z"/></clipPath><clipPath id="clip-path-3"><path d="m95.99656 78.55357a7.30485 7.30485 0 1 0 7.30484 7.30485 7.31346 7.31346 0 0 0 -7.30484-7.30485z"/></clipPath><clipPath id="clip-path-4"><path d="m52.22989 32.86518a7.18948 7.18948 0 1 0 7.18948 7.18948 7.19795 7.19795 0 0 0 -7.18948-7.18948z"/></clipPath><g id="_24" data-name="24"><path d="m17.718 14.589h92.89v60.441h-92.89z" fill="#b1f6fe"/><path d="m104.056 14.589h6.551v60.441h-6.551z" fill="#95effe"/><path d="m84.03053 72.607-3.92219 1.90484h-31.90082l-3.84475-1.90484h-30.77348c0 5.54755 5.34854 10.04474 11.9463 10.04474h76.92882c6.59776 0 11.9463-4.49719 11.9463-10.04474z" fill="#bfc6da"/><path d="m48.208 74.512-3.845-1.905h-5.767l3.844 1.905z" fill="#b3bad1"/><path d="m108.64359 72.607c0 5.54757-5.34854 10.04475-11.94632 10.04475h5.76712c6.59778 0 11.94632-4.49718 11.94632-10.04475z" fill="#b3bad1"/><path d="m35.47623 90.4201-.29437-.09421-6.55239.055-.29272.09887c-3.22484 1.09037-5.30847 3.52575-5.30847 6.2055v3.12934h17.936v-3.12931c.00001-2.74411-2.15392-5.2028-5.48805-6.26519z" fill="#95d7fe"/><path d="m35.47623 90.4201-.29437-.09421-3.28793.02764.20807.06657c3.33414 1.06239 5.48806 3.52108 5.48806 6.26519v3.12934h3.37423v-3.12934c0-2.74411-2.15393-5.2028-5.48806-6.26519z" fill="#7ac4ea"/><path d="m31.99656 78.61039a7.24712 7.24712 0 1 0 7.24711 7.24711 7.25565 7.25565 0 0 0 -7.24711-7.24711z" fill="#feead8"/><path d="m31.99656 78.61039a7.22126 7.22126 0 0 0 -1.68725.20635 7.2379 7.2379 0 0 1 0 14.08152 7.24393 7.24393 0 1 0 1.68725-14.28787z" fill="#f4d9c3"/><g clip-path="url(#clip-path)"><path d="m46.32544 85.36248-6.39585 3.19792a3.37836 3.37836 0 0 0 -.79382-1.14536 7.9504 7.9504 0 0 0 -3.24326-1.87115 12.07727 12.07727 0 0 0 -3.867-.61234c-4.536 0-7.37108 2.15458-7.93809 3.68554l-6.46388-3.00516c1.88243-5.11441 7.66593-8.55043 14.402-8.55043 6.58863 0 12.32673 3.334 14.2999 8.30098z" fill="#cb8f6a"/><path d="m39.3059 85.86145a7.012 7.012 0 0 1 -.17013 1.55359 7.9504 7.9504 0 0 0 -3.24326-1.87115 7.30951 7.30951 0 0 0 -5.602-6.78137 7.13447 7.13447 0 0 1 1.701-.21547 7.31765 7.31765 0 0 1 7.31439 7.3144z" fill="#b77651"/></g><path d="m19.483 96.915 1.026 16.703h22.859l1.024-16.703z" fill="#bfc6da"/><path d="m41.735 96.915-1.025 16.703h2.658l1.024-16.703z" fill="#b3bad1"/><circle cx="31.938" cy="105.267" fill="#fff" r="3.362"/><path d="m67.52787 90.97858-.29873-.09019-6.64964.05269-.29706.09465c-3.27271 1.04386-5.38726 3.37537-5.38726 5.94083v2.99586h18.2022v-2.99586c0-2.62708-2.18589-4.9809-5.56951-5.99798z" fill="#b2f1a9"/><path d="m67.52787 90.97858-.29873-.09019-3.33673.02646.21116.06373c3.38362 1.01708 5.56951 3.3709 5.56951 5.998v2.99586h3.4243v-2.99588c0-2.62708-2.18589-4.9809-5.56951-5.99798z" fill="#7cbf6b"/><path d="m63.99656 78.45348a7.35468 7.35468 0 1 0 7.35467 7.35467 7.36334 7.36334 0 0 0 -7.35467-7.35467z" fill="#feead8"/><path d="m63.99656 78.45348a7.32842 7.32842 0 0 0 -1.71229.20942 7.34531 7.34531 0 0 1 0 14.2905 7.35144 7.35144 0 1 0 1.71229-14.49992z" fill="#f4d9c3"/><g clip-path="url(#clip-path-2)"><path d="m78.53811 85.30578-6.49077 3.24539a3.42879 3.42879 0 0 0 -.80561-1.16237 8.0685 8.0685 0 0 0 -3.29139-1.89891 12.25665 12.25665 0 0 0 -3.92435-.62143c-4.60337 0-7.48048 2.18656-8.0559 3.74024l-6.55982-3.04977c1.91037-5.19031 7.77973-8.67733 14.61573-8.67733 6.68639 0 12.50965 3.38348 14.51211 8.42418z" fill="#cb8f6a"/><path d="m71.41439 85.81216a7.1156 7.1156 0 0 1 -.17266 1.57664 8.0685 8.0685 0 0 0 -3.29139-1.89891 7.418 7.418 0 0 0 -5.68517-6.882 7.24036 7.24036 0 0 1 1.72627-.21867 7.42627 7.42627 0 0 1 7.42295 7.42294z" fill="#b77651"/></g><path d="m52.382 97.518.951 15.497h21.21l.95-15.497z" fill="#bfc6da"/><path d="m73.028 97.518-.951 15.497h2.466l.95-15.497z" fill="#b3bad1"/><circle cx="63.938" cy="105.267" fill="#fff" r="3.119"/><path d="m99.47527 90.69853-.29428-.09139-6.55059.05339-.29264.09591c-3.224 1.05771-5.307 3.42015-5.307 6.01965v3.03561h17.93108v-3.03561c-.00002-2.66193-2.15335-5.04699-5.48657-6.07756z" fill="#ff99b1"/><path d="m99.47527 90.69853-.29428-.09139-3.287.02681.208.06458c3.33322 1.03057 5.48655 3.41563 5.48655 6.07756v3.03561h3.3733v-3.03561c-.00002-2.66193-2.15335-5.04699-5.48657-6.07756z" fill="#f2799c"/><path d="m95.99656 78.61329a7.24513 7.24513 0 1 0 7.24512 7.24513 7.25366 7.25366 0 0 0 -7.24512-7.24513z" fill="#feead8"/><path d="m95.99656 78.61329a7.21953 7.21953 0 0 0 -1.68679.2063 7.23591 7.23591 0 0 1 0 14.07765 7.24195 7.24195 0 1 0 1.68679-14.28395z" fill="#f4d9c3"/><g clip-path="url(#clip-path-3)"><path d="m110.32151 85.36353-6.3941 3.197a3.37752 3.37752 0 0 0 -.7936-1.145 7.94842 7.94842 0 0 0 -3.24237-1.87063 12.07409 12.07409 0 0 0 -3.86589-.61217c-4.5348 0-7.36906 2.154-7.93591 3.68452l-6.46211-3.00433c1.88192-5.113 7.66383-8.54808 14.398-8.54808 6.58682-.00001 12.32335 3.33307 14.29598 8.29869z" fill="#cb8f6a"/><path d="m103.30389 85.86236a7.00993 7.00993 0 0 1 -.17008 1.55316 7.94842 7.94842 0 0 0 -3.24237-1.87063 7.30751 7.30751 0 0 0 -5.60044-6.77951 7.13264 7.13264 0 0 1 1.70051-.21538 7.31565 7.31565 0 0 1 7.31238 7.31236z" fill="#b77651"/></g><path d="m83.344 96.821 1.036 16.891h23.116l1.036-16.891z" fill="#bfc6da"/><path d="m105.845 96.821-1.036 16.891h2.687l1.036-16.891z" fill="#b3bad1"/><circle cx="95.938" cy="105.267" fill="#fff" r="2.902"/><path d="m36.778 25.675h54.767v29.351h-54.767z" fill="#f6fafb"/><path d="m55.65366 42.9024-.28963-.10915-6.44714.06376-.288.11456a7.892 7.892 0 0 0 -5.22321 7.19015v3.62587h17.64789v-3.62587a7.89481 7.89481 0 0 0 -5.39991-7.25932z" fill="#ffe439"/><path d="m55.65366 42.9024-.28963-.10915-3.23512.032.20473.07713a7.8948 7.8948 0 0 1 5.3999 7.25932v3.62587h3.32v-3.62585a7.89481 7.89481 0 0 0 -5.39988-7.25932z" fill="#f4d32f"/><path d="m52.22989 32.924a7.13071 7.13071 0 1 0 7.13071 7.13071 7.1391 7.1391 0 0 0 -7.13071-7.13071z" fill="#feead8"/><path d="m52.22989 32.924a7.10536 7.10536 0 0 0 -1.66015.203 7.12164 7.12164 0 0 1 0 13.85533 7.12758 7.12758 0 1 0 1.66015-14.05833z" fill="#f4d9c3"/><g clip-path="url(#clip-path-4)"><path d="m66.32861 39.56759-6.29311 3.14655a3.3243 3.3243 0 0 0 -.78107-1.127 7.82285 7.82285 0 0 0 -3.19117-1.8411 11.88348 11.88348 0 0 0 -3.80484-.6025c-4.46319 0-7.25268 2.12-7.81058 3.62634l-6.36006-2.95688c1.8522-5.03226 7.54281-8.41309 14.17064-8.41309 6.48278.00003 12.12872 3.28048 14.07019 8.16768z" fill="#cb8f6a"/><path d="m59.42182 40.05854a6.89932 6.89932 0 0 1 -.16739 1.52864 7.82285 7.82285 0 0 0 -3.19117-1.8411 7.1921 7.1921 0 0 0 -5.512-6.67244 7.02014 7.02014 0 0 1 1.6737-.212 7.20012 7.20012 0 0 1 7.19686 7.1969z" fill="#b77651"/></g><path d="m36.778 53.964h54.767v7.607h-54.767z" fill="#bfc6da"/><path d="m111.71484 70.82617v-5.33105h-3v5.33105h-23.835l-4.08784 2.36133h-33.25489l-4.00781-2.36133h-23.92188v-54.54h89.10742v43.8652h3v-46.86524h-95.10742v57.54h-5.15332v1.5a10.9591 10.9591 0 0 0 10.94727 10.94633h1.428a8.2927 8.2927 0 0 0 1.68457 7.421 9.18085 9.18085 0 0 0 -3.75843 5.13465h-3.902l1.15918 18.88574h25.85059l.27442-4.48828-2.99415-.1836-.10253 1.67188h-20.20602l-.792-12.88574h21.789l-.44433 7.25 2.99414.18359.63964-10.43359h-3.85983a9.25577 9.25577 0 0 0 -3.76568-5.142 8.29362 8.29362 0 0 0 1.678-7.4137h15.8169a8.29252 8.29252 0 0 0 1.68469 7.421 9.17972 9.17972 0 0 0 -3.75763 5.13465h-3.9019l1.15918 18.88574h25.84962l1.1592-18.88567h-3.86061a9.25187 9.25187 0 0 0 -3.76508-5.14179 8.29368 8.29368 0 0 0 1.67816-7.41388h15.8169a8.29254 8.29254 0 0 0 1.68463 7.421 9.18107 9.18107 0 0 0 -3.75848 5.13471h-3.901l1.1582 18.88574h25.85058l1.15918-18.88574h-3.86084a9.25549 9.25549 0 0 0 -3.76507-5.14155 8.29358 8.29358 0 0 0 1.6784-7.41412h1.39966a10.9591 10.9591 0 0 0 10.94727-10.94633v-1.5zm-72.72564 25.00196h-14.06244a6.66115 6.66115 0 0 1 3.03552-3.12562 8.37456 8.37456 0 0 0 7.98438-.00286 6.70936 6.70936 0 0 1 3.04254 3.12848zm-7.038-12.65821a10.87946 10.87946 0 0 0 -5.30005 1.29865 5.36574 5.36574 0 0 1 10.60193.00891 10.88109 10.88109 0 0 0 -5.30191-1.30756zm4.76795 4.61145a5.34179 5.34179 0 0 1 -9.53656-.00268 6.82846 6.82846 0 0 1 4.76861-1.60877 6.86338 6.86338 0 0 1 4.76792 1.61145zm38.17538 11.04676-.792 12.88574h-20.20507l-.792-12.88574zm-3.84326-3h-14.0625a6.65517 6.65517 0 0 1 3.03491-3.1258 8.376 8.376 0 0 0 7.98511-.0025 6.70619 6.70619 0 0 1 3.04248 3.1283zm-7.0376-12.65821a10.88036 10.88036 0 0 0 -5.301 1.299 5.36624 5.36624 0 0 1 10.60284.00855 10.88109 10.88109 0 0 0 -5.30184-1.30755zm4.76795 4.61145a5.34238 5.34238 0 0 1 -9.53711-.00232 6.83089 6.83089 0 0 1 4.76916-1.60913 6.86338 6.86338 0 0 1 4.76795 1.61145zm38.17538 11.04676-.792 12.88574h-20.206l-.791-12.88574zm-3.84381-3h-14.06241a6.66154 6.66154 0 0 1 3.03565-3.12568 8.37592 8.37592 0 0 0 7.98474-.00256 6.70967 6.70967 0 0 1 3.04205 3.12824zm-7.037-12.65821a10.88036 10.88036 0 0 0 -5.301 1.299 5.36624 5.36624 0 0 1 10.60284.00855 10.88109 10.88109 0 0 0 -5.30186-1.30755zm4.76795 4.61145a5.34238 5.34238 0 0 1 -9.53711-.00232 7.86571 7.86571 0 0 1 9.53711.00232zm4.75451-7.50891h-2.844a8.35586 8.35586 0 0 0 -13.35681 0h-18.70576a8.35586 8.35586 0 0 0 -13.35681 0h-18.70569a8.35494 8.35494 0 0 0 -13.3559 0h-2.87231a7.96162 7.96162 0 0 1 -7.80567-6.44629h28.11524l4.00781 2.36133h34.87793l4.08789-2.36133h27.71973a7.96162 7.96162 0 0 1 -7.80567 6.44629zm-70.40138-26.08887v8.42383h57.92773v-37.96875h-57.92773zm3 1.5h41.36522v-3h-16.79v-.93554a8.79529 8.79529 0 0 0 -3.96329-7.20205 8.229 8.229 0 1 0 -12.68408.01392 8.82018 8.82018 0 0 0 -3.97571 7.18817v.93554h-3.95214v-25.04496h51.92773v25.04492h-3.55762v3h3.55762v3.92383h-51.92773zm14.26367-18.50781a10.70575 10.70575 0 0 0 -5.13721 1.23792 5.2129 5.2129 0 0 1 10.27545.01 10.69746 10.69746 0 0 0 -5.13824-1.24792zm4.61511 4.54522a5.18321 5.18321 0 0 1 -9.23193-.00318 6.66541 6.66541 0 0 1 4.61682-1.542 6.69726 6.69726 0 0 1 4.61511 1.54518zm-8.50879 4.8415a8.20931 8.20931 0 0 0 7.79712-.0047 6.00036 6.00036 0 0 1 3.40808 5.19025v.918h-14.623v-.918a6.02156 6.02156 0 0 1 3.4178-5.18555zm20.73254-13.958h15.2402v3h-15.2402zm0 6.0625h10.13184v3h-10.13184zm0 7.01367h8.29786v3h-8.29786zm-41.16113 59.59081a3.79932 3.79932 0 1 0 3.79882-3.7998 3.80307 3.80307 0 0 0 -3.79882 3.7998zm4.59863 0a.79932.79932 0 1 1 -.79981-.7998.8.8 0 0 1 .79981.7998zm31.2627 3.79883a3.79932 3.79932 0 1 0 -3.7998-3.79883 3.80328 3.80328 0 0 0 3.7998 3.79883zm0-4.59863a.79932.79932 0 1 1 -.7998.7998.8002.8002 0 0 1 .7998-.7998zm32.06249 4.59863a3.79932 3.79932 0 1 0 -3.79979-3.79883 3.80307 3.80307 0 0 0 3.79979 3.79883zm0-4.59863a.79932.79932 0 1 1 -.79979.7998.8.8 0 0 1 .79979-.7998z"/></g></svg>