<svg id="Layer_1" enable-background="new 0 0 491.5 491.5" viewBox="0 0 491.5 491.5" xmlns="http://www.w3.org/2000/svg" width="300" height="300" version="1.1" xmlns:xlink="http://www.w3.org/1999/xlink" xmlns:svgjs="http://svgjs.dev/svgjs"><g transform="matrix(1,0,0,1,0,0)"><g clip-rule="evenodd" fill="#66bb6a" fill-rule="evenodd"><path d="m400.4 65.9h-309.3v193.9h309.3zm-88.6 21.4c22.9 0 41.5 18.6 41.5 41.5s-18.6 41.5-41.5 41.5-41.5-18.6-41.5-41.5 18.6-41.5 41.5-41.5zm-93.9 151.1h-84.9c-2.7 0-4.8-2.1-4.8-4.8s2.1-4.8 4.8-4.8h84.9c2.7 0 4.8 2.2 4.8 4.8s-2.2 4.8-4.8 4.8zm0-31.9h-84.9c-2.7 0-4.8-2.1-4.8-4.8s2.1-4.8 4.8-4.8h84.9c2.7 0 4.8 2.1 4.8 4.8 0 2.6-2.2 4.8-4.8 4.8zm4.1-38.6c-.8 1.5-2.4 2.4-4.1 2.4h-84.9c-1.7 0-3.3-.9-4.2-2.4s-.9-3.3 0-4.8l42.4-73.5c.9-1.5 2.4-2.4 4.2-2.4 1.7 0 3.3.9 4.1 2.4l42.4 73.5c1 1.5 1 3.4.1 4.8zm136.5 70.5h-93.4c-2.7 0-4.8-2.1-4.8-4.8s2.1-4.8 4.8-4.8h93.4c2.7 0 4.8 2.1 4.8 4.8 0 2.6-2.2 4.8-4.8 4.8zm0-31.9h-93.4c-2.7 0-4.8-2.1-4.8-4.8s2.1-4.8 4.8-4.8h93.4c2.7 0 4.8 2.1 4.8 4.8 0 2.6-2.2 4.8-4.8 4.8z" fill="#80aae5" fill-opacity="1" data-original-color="#66bb6aff" stroke="none" stroke-opacity="1"/><path d="m141.3 160.7h68.3l-34.2-59z" fill="#80aae5" fill-opacity="1" data-original-color="#66bb6aff" stroke="none" stroke-opacity="1"/><path d="m311.8 160.7c17.6 0 32-14.3 32-31.9s-14.3-31.9-31.9-31.9-31.9 14.3-31.9 31.9c-.1 17.6 14.2 31.9 31.8 31.9z" fill="#80aae5" fill-opacity="1" data-original-color="#66bb6aff" stroke="none" stroke-opacity="1"/><path d="m63.6 290.1h364.4c1.5 0 2.8-1.3 2.8-2.8v-249c0-1.5-1.3-2.8-2.8-2.8h-364.4c-1.5 0-2.8 1.3-2.8 2.8v249c0 1.5 1.2 2.8 2.8 2.8zm17.9-229c0-2.7 2.1-4.8 4.8-4.8h318.9c2.7 0 4.8 2.2 4.8 4.8v203.5c0 2.6-2.2 4.8-4.8 4.8h-318.9c-2.7 0-4.8-2.1-4.8-4.8z" fill="#80aae5" fill-opacity="1" data-original-color="#66bb6aff" stroke="none" stroke-opacity="1"/><path d="m271.3 413.1-7.9-2.3c-12.4 5.8-22.9 5.8-35.3 0l-7.9 2.3c-17 4.9-27.5 10.5-27.5 23.6v19.3h13.7v-15.6c0-2.7 2.1-4.8 4.8-4.8s4.8 2.2 4.8 4.8v15.6h59.6v-15.6c0-2.7 2.2-4.8 4.8-4.8 2.7 0 4.8 2.2 4.8 4.8v15.6h13.7v-19.3c-.1-13.1-10.6-18.7-27.6-23.6z" fill="#80aae5" fill-opacity="1" data-original-color="#66bb6aff" stroke="none" stroke-opacity="1"/><path d="m273.6 384.1v-28.4c0-15.4-12.5-27.9-27.9-27.9s-27.9 12.5-27.9 27.9v28.4h10.7 34.5z" fill="#80aae5" fill-opacity="1" data-original-color="#66bb6aff" stroke="none" stroke-opacity="1"/><path d="m233.3 402.7c8.9 3.9 15.9 3.9 24.8 0v-9h-24.8z" fill="#80aae5" fill-opacity="1" data-original-color="#66bb6aff" stroke="none" stroke-opacity="1"/><path d="m128.6 410.5h-14.1c-12.9 6.2-23.7 6.2-36.7 0h-14.1c-14.5 0-26.2 11.8-26.2 26.2v19.3h19.2v-15.6c0-2.7 2.1-4.8 4.8-4.8s4.8 2.2 4.8 4.8v15.6h59.7v-15.6c0-2.7 2.1-4.8 4.8-4.8s4.8 2.2 4.8 4.8v15.6h19.2v-19.3c0-14.4-11.7-26.2-26.2-26.2z" fill="#80aae5" fill-opacity="1" data-original-color="#66bb6aff" stroke="none" stroke-opacity="1"/><path d="m83.8 402.7c8.9 3.9 15.9 3.9 24.8 0v-11c-3.9 1.4-8.1 2.1-12.4 2.1s-8.5-.7-12.4-2.1z" fill="#80aae5" fill-opacity="1" data-original-color="#66bb6aff" stroke="none" stroke-opacity="1"/><path d="m124.4 356c0-15.5-12.6-28.2-28.2-28.2-15.5 0-28.2 12.6-28.2 28.2 0 15.5 12.6 28.2 28.2 28.2s28.2-12.7 28.2-28.2z" fill="#80aae5" fill-opacity="1" data-original-color="#66bb6aff" stroke="none" stroke-opacity="1"/><path d="m420.5 345.1c0-9.6-7.8-17.4-17.4-17.4h-15.8c-9.6 0-17.4 7.8-17.4 17.4v1c3.9 9 13.7 14.8 25.2 14.8 11.6 0 21.4-5.8 25.2-14.8v-1z" fill="#80aae5" fill-opacity="1" data-original-color="#66bb6aff" stroke="none" stroke-opacity="1"/><path d="" fill="#80aae5" fill-opacity="1" data-original-color="#66bb6aff" stroke="none" stroke-opacity="1"/><path d="m410.2 382.5c6.2-4.2 10.3-11.3 10.3-19.4v-1.4c-6.6 5.6-15.5 8.8-25.2 8.8-9.8 0-18.7-3.2-25.2-8.8v1.4c0 8.1 4.1 15.2 10.3 19.4.2.1.5.3.7.4 3.6 2.3 7.9 3.6 12.4 3.6h3.7c4.6 0 8.8-1.3 12.4-3.6.2-.2.4-.3.6-.4z" fill="#80aae5" fill-opacity="1" data-original-color="#66bb6aff" stroke="none" stroke-opacity="1"/><path d="m393.4 396.1c-3.7 0-7.2-.6-10.6-1.7v8.3c8.9 3.9 15.9 3.9 24.8 0v-8.3c-3.3 1.1-6.9 1.7-10.5 1.7z" fill="#80aae5" fill-opacity="1" data-original-color="#66bb6aff" stroke="none" stroke-opacity="1"/><path d="m427.7 410.5h-14.1c-12.9 6.2-23.7 6.2-36.7 0h-14.1c-14.4 0-26.2 11.8-26.2 26.2v19.3h19.2v-15.6c0-2.7 2.1-4.8 4.8-4.8s4.8 2.2 4.8 4.8v15.6h59.6v-15.6c0-2.7 2.1-4.8 4.8-4.8s4.8 2.2 4.8 4.8v15.6h19.2v-19.3c.1-14.4-11.6-26.2-26.1-26.2z" fill="#80aae5" fill-opacity="1" data-original-color="#66bb6aff" stroke="none" stroke-opacity="1"/></g></g></svg>