<svg height="512" viewBox="0 0 32 32" width="512" xmlns="http://www.w3.org/2000/svg"><g id="stationary"><g><g><path d="m8 23h-4c-.552 0-1-.447-1-1v-16c0-.155.036-.309.105-.447l2-4c.339-.678 1.45-.678 1.789 0l2 4c.07.138.106.292.106.447v16c0 .553-.448 1-1 1zm-3-2h2v-14.764l-1-2-1 2z" fill="#263238"/></g><g><path d="m9 18h-6v4c0 .553.448 1 1 1h4c.552 0 1-.447 1-1z" fill="#3498db"/></g><g><path d="m30 31h-28c-.552 0-1-.447-1-1v-5c0-.553.448-1 1-1h28c.552 0 1 .447 1 1v5c0 .553-.448 1-1 1zm-27-2h26v-3h-26z" fill="#263238"/></g><g><path d="m7 24v3c0 .55-.45 1-1 1s-1-.45-1-1v-3z" fill="#3498db"/></g><g><path d="m12 24v3c0 .55-.45 1-1 1s-1-.45-1-1v-3z" fill="#3498db"/></g><g><path d="m17 24v3c0 .55-.45 1-1 1s-1-.45-1-1v-3z" fill="#3498db"/></g><g><path d="m22 24v3c0 .55-.45 1-1 1s-1-.45-1-1v-3z" fill="#3498db"/></g><g><path d="m27 24v3c0 .55-.45 1-1 1s-1-.45-1-1v-3z" fill="#3498db"/></g><g><path d="m28 23h-16c-.552 0-1-.447-1-1v-20c0-.553.448-1 1-1h16c.552 0 1 .447 1 1v20c0 .553-.448 1-1 1zm-15-2h14v-18h-14z" fill="#263238"/></g><path d="m24 5h-8c-.552 0-1 .447-1 1v4c0 .553.448 1 1 1h8c.552 0 1-.447 1-1v-4c0-.553-.448-1-1-1z" fill="#3498db"/><g><path d="m23 19h-6c-.552 0-1-.447-1-1s.448-1 1-1h6c.552 0 1 .447 1 1s-.448 1-1 1z" fill="#263238"/></g></g></g></svg>