<svg enable-background="new 0 0 512 512" viewBox="0 0 512 512" xmlns="http://www.w3.org/2000/svg"><g id="_x30_1_Bed"><g><path d="m437.139 151.392v160.931c-3.726-.833-7.598-1.275-11.618-1.275h-338.97c-3.823 0-7.598.392-11.176 1.176v-160.832z" fill="#c9def7"/><path d="m476.156 359.502v81.991c0 9.755-7.908 17.663-17.663 17.663h-404.985c-9.755 0-17.663-7.908-17.663-17.663v-81.991c0-26.752 22.696-48.466 50.719-48.466h338.934c27.962 0 50.658 21.714 50.658 48.466z" fill="#fff"/><g fill="#c9def7"><path d="m447.384 459.186v30.735c0 6.177-5 11.177-11.176 11.177h-28.529c-6.177 0-11.177-5-11.177-11.177v-30.735z"/><path d="m120.397 459.155v30.759c0 6.177-5.007 11.184-11.184 11.184h-28.593c-6.177 0-11.184-5.007-11.184-11.184v-30.759z"/><path d="m356.369 119.41-.166.167-.056-.111-.055-.056z"/><path d="m301.643 119.577-.111.111-.056-.111z"/></g><path d="m151.382 10.902v108.564h209.738v-108.564zm43.059 56.615c-10.306 0-18.392-9.366-16.35-19.958 1.284-6.663 6.84-12.062 13.538-13.149 10.473-1.699 19.48 6.295 19.48 16.439 0 9.168-7.445 16.668-16.668 16.668zm89.062 51.893 10.889-20.279 26.78-49.837 39.336 70.116z" fill="#fff"/><path d="m360.509 119.41h-77.006l10.89-20.279 26.779-49.837z" fill="#c9def7"/><path d="m305.838 119.466.056.111h-62.839l.056-.111 30.669-57.116 20.613 36.781-10.89 20.279h22.28z" fill="#c9def7"/><path d="m210.74 47.306c2.452 11.81-7.719 22.181-19.612 19.891-6.52-1.255-11.843-6.599-13.056-13.127-2.17-11.683 7.758-21.676 19.426-19.619 6.513 1.149 11.898 6.38 13.242 12.855z" fill="#c9def7"/><path d="m216.58 254.095v37.008c0 11.009-8.924 19.933-19.933 19.933h-70.437c-11.009 0-19.933-8.924-19.933-19.933v-37.008c0-11.009 8.924-19.933 19.933-19.933h70.437c11.009 0 19.933 8.925 19.933 19.933z" fill="#fff"/><path d="m406.224 254.095v37.008c0 11.009-8.924 19.933-19.933 19.933h-70.437c-11.009 0-19.933-8.924-19.933-19.933v-37.008c0-11.009 8.924-19.933 19.933-19.933h70.437c11.009 0 19.933 8.925 19.933 19.933z" fill="#fff"/><path d="m277.994 392.795h34.261c2.707 0 4.902-2.195 4.902-4.902s-2.195-4.902-4.902-4.902h-34.261c-2.707 0-4.902 2.195-4.902 4.902s2.195 4.902 4.902 4.902z" fill="#0c76f0"/><path d="m53.507 464.058h11.027v25.855c0 8.87 7.217 16.087 16.087 16.087h28.593c8.868 0 16.085-7.217 16.085-16.087v-25.855h266.302v25.865c0 8.866 7.212 16.077 16.077 16.077h28.531c8.866 0 16.077-7.212 16.077-16.077v-25.865h6.206c12.442 0 22.564-10.122 22.564-22.566v-81.991c0-23.894-16.434-44.169-39.015-50.948 0-72.446 0-134.512 0-206.819 0-2.707-2.195-4.902-4.902-4.902s-4.902 2.195-4.902 4.902v44.757h-351.951v-44.738c0-2.707-2.195-4.902-4.902-4.902s-4.902 2.195-4.902 4.902c0 1.058-.009 204.106-.01 206.679-22.844 6.64-39.529 27.012-39.529 51.069v81.991c0 12.444 10.122 22.566 22.564 22.566zm61.988 25.855c0 3.463-2.817 6.283-6.281 6.283h-28.593c-3.463 0-6.283-2.82-6.283-6.283v-25.855h41.157zm326.988.01c0 3.459-2.815 6.273-6.273 6.273h-28.531c-3.459 0-6.273-2.815-6.273-6.273v-25.833h41.078v25.833zm-362.197-333.628h351.953v150.237c-.132-.015-.267-.009-.399-.023-2.084-.229-4.194-.374-6.341-.374h-19.574c3.213-4.186 5.201-9.358 5.201-15.031v-37.009c0-13.693-11.139-24.835-24.833-24.835h-70.437c-13.693 0-24.835 11.142-24.835 24.835v37.009c0 5.673 1.988 10.845 5.201 15.031h-79.94c3.214-4.186 5.201-9.358 5.201-15.031v-37.009c0-13.693-11.142-24.835-24.835-24.835h-70.437c-13.693 0-24.835 11.142-24.835 24.835v37.009c0 5.673 1.988 10.845 5.201 15.031h-20.013c-2.042 0-4.054.122-6.04.329-.078.008-.16.004-.238.013zm321.035 97.8v37.009c0 8.289-6.743 15.031-15.029 15.031h-70.437c-8.289 0-15.031-6.743-15.031-15.031v-37.009c0-8.289 6.743-15.031 15.031-15.031h70.437c8.287-.001 15.029 6.742 15.029 15.031zm-189.642 0v37.009c0 8.289-6.743 15.031-15.031 15.031h-70.437c-8.289 0-15.031-6.743-15.031-15.031v-37.009c0-8.289 6.743-15.031 15.031-15.031h70.437c8.288-.001 15.031 6.742 15.031 15.031zm-170.932 138.927 215.028-.227c2.707-.002 4.9-2.2 4.897-4.907-.002-2.707-2.197-4.897-4.902-4.897-.002 0-.002 0-.005 0l-215.018.227v-23.717c0-24.121 20.697-43.55 45.805-43.55h338.97c24.963 0 45.731 19.359 45.731 43.55v81.991c0 7.037-5.723 12.762-12.76 12.762-51.454 0-346.694 0-404.986 0-7.037 0-12.76-5.725-12.76-12.762v-48.47z" fill="#0c76f0"/><path d="m151.381 124.368c19.698.071 203.983.134 209.738 0 2.707 0 4.902-2.195 4.902-4.902v-108.564c0-2.707-2.195-4.902-4.902-4.902h-209.738c-2.707 0-4.902 2.195-4.902 4.902v108.564c0 2.707 2.195 4.902 4.902 4.902zm129.162-9.804h-29.235l22.562-42.021 14.931 26.638zm11.157-.055 29.567-55.03 30.872 55.03c-22.653 0-37.97 0-60.439 0zm-135.417-98.705h199.934v85.938l-30.769-54.846c-.869-1.546-2.504-2.504-4.275-2.504-.014 0-.029 0-.045 0-1.788.017-3.425 1.005-4.272 2.583l-22.55 41.973-16.249-28.993c-.874-1.561-2.513-2.391-4.32-2.506-1.79.017-3.43 1.005-4.275 2.583l-29.277 54.532h-83.902z" fill="#0c76f0"/><path d="m190.843 29.572c-8.677 1.41-15.9 8.423-17.566 17.059-2.589 13.426 7.586 25.788 21.164 25.788 11.893 0 21.571-9.675 21.571-21.568-.001-13.181-11.7-23.426-25.169-21.279zm3.598 33.042c-7.143 0-13.014-6.468-11.537-14.127.902-4.677 4.813-8.476 9.51-9.237 7.556-1.237 13.794 4.544 13.794 11.599-.001 6.488-5.278 11.765-11.767 11.765z" fill="#0c76f0"/></g></g><g id="Layer_1"/></svg>